<svg width="1137" height="884" viewBox="0 0 1137 884" fill="none" xmlns="http://www.w3.org/2000/svg">
<rect y="0.647461" width="1137" height="882.705" rx="51.721" fill="#E8E8E8"/>
<path d="M602 135H987C1018.48 135 1044 160.52 1044 192V628C1044 659.48 1018.48 685 987 685H602C570.52 685 545 659.48 545 628V192C545 160.52 570.52 135 602 135Z" fill="#E8E8E8" stroke="black" stroke-width="10"/>
<path d="M598.896 603.277C597.325 603.277 595.931 602.923 594.714 602.214C593.497 601.49 592.542 600.505 591.848 599.257C591.155 597.994 590.809 596.546 590.809 594.913C590.809 593.28 591.155 591.84 591.848 590.592C592.542 589.329 593.489 588.343 594.691 587.634C595.907 586.91 597.302 586.548 598.873 586.548C599.982 586.548 601.014 586.749 601.969 587.149C602.924 587.534 603.756 588.081 604.464 588.79C605.188 589.483 605.743 590.284 606.128 591.193L603.194 592.279C602.932 591.709 602.585 591.216 602.154 590.8C601.722 590.369 601.23 590.037 600.675 589.806C600.12 589.56 599.52 589.437 598.873 589.437C597.933 589.437 597.094 589.676 596.354 590.153C595.63 590.615 595.06 591.254 594.644 592.071C594.244 592.887 594.044 593.835 594.044 594.913C594.044 595.991 594.252 596.946 594.667 597.778C595.083 598.594 595.661 599.241 596.4 599.719C597.14 600.181 597.987 600.412 598.942 600.412C599.604 600.412 600.205 600.289 600.744 600.042C601.299 599.781 601.784 599.426 602.2 598.98C602.631 598.533 602.978 598.017 603.24 597.431L606.174 598.494C605.789 599.434 605.235 600.266 604.511 600.99C603.802 601.714 602.97 602.276 602.015 602.677C601.06 603.077 600.02 603.277 598.896 603.277ZM613.49 603.277C612.319 603.277 611.272 603.023 610.347 602.515C609.439 601.991 608.722 601.275 608.199 600.366C607.69 599.457 607.436 598.41 607.436 597.223C607.436 596.037 607.69 594.99 608.199 594.081C608.707 593.172 609.415 592.464 610.324 591.955C611.233 591.432 612.273 591.17 613.444 591.17C614.63 591.17 615.677 591.432 616.586 591.955C617.495 592.464 618.203 593.172 618.712 594.081C619.22 594.99 619.474 596.037 619.474 597.223C619.474 598.41 619.22 599.457 618.712 600.366C618.203 601.275 617.495 601.991 616.586 602.515C615.693 603.023 614.661 603.277 613.49 603.277ZM613.49 600.458C614.06 600.458 614.56 600.32 614.992 600.042C615.423 599.765 615.754 599.388 615.985 598.91C616.232 598.417 616.355 597.855 616.355 597.223C616.355 596.592 616.232 596.037 615.985 595.56C615.739 595.067 615.392 594.682 614.946 594.405C614.514 594.127 614.014 593.989 613.444 593.989C612.889 593.989 612.388 594.127 611.942 594.405C611.51 594.682 611.172 595.067 610.925 595.56C610.679 596.037 610.555 596.592 610.555 597.223C610.555 597.855 610.679 598.417 610.925 598.91C611.172 599.388 611.518 599.765 611.965 600.042C612.412 600.32 612.92 600.458 613.49 600.458ZM611.433 590.014L614.067 586.826H617.487L614.507 590.014H611.433ZM629.712 603L629.55 600.851V586.826H632.6V603H629.712ZM626.084 603.277C625.021 603.277 624.097 603.031 623.311 602.538C622.541 602.045 621.94 601.344 621.509 600.435C621.078 599.526 620.862 598.456 620.862 597.223C620.862 595.976 621.078 594.905 621.509 594.012C621.94 593.103 622.541 592.402 623.311 591.909C624.097 591.416 625.021 591.17 626.084 591.17C627.054 591.17 627.871 591.416 628.533 591.909C629.211 592.402 629.727 593.103 630.081 594.012C630.436 594.905 630.613 595.976 630.613 597.223C630.613 598.456 630.436 599.526 630.081 600.435C629.727 601.344 629.211 602.045 628.533 602.538C627.871 603.031 627.054 603.277 626.084 603.277ZM626.87 600.481C627.393 600.481 627.855 600.343 628.256 600.066C628.672 599.788 628.995 599.403 629.226 598.91C629.457 598.417 629.573 597.855 629.573 597.223C629.573 596.592 629.457 596.03 629.226 595.537C628.995 595.044 628.672 594.666 628.256 594.405C627.855 594.127 627.386 593.989 626.846 593.989C626.292 593.989 625.807 594.127 625.391 594.405C624.975 594.666 624.644 595.044 624.397 595.537C624.151 596.03 624.027 596.592 624.027 597.223C624.027 597.855 624.151 598.417 624.397 598.91C624.644 599.403 624.975 599.788 625.391 600.066C625.822 600.343 626.315 600.481 626.87 600.481ZM635.412 603V591.447H638.462V603H635.412ZM636.937 589.575C636.475 589.575 636.067 589.406 635.713 589.067C635.359 588.713 635.181 588.297 635.181 587.819C635.181 587.342 635.359 586.934 635.713 586.595C636.067 586.24 636.475 586.063 636.937 586.063C637.415 586.063 637.823 586.24 638.162 586.595C638.516 586.934 638.693 587.342 638.693 587.819C638.693 588.297 638.516 588.713 638.162 589.067C637.823 589.406 637.415 589.575 636.937 589.575ZM646.474 607.922C645.596 607.922 644.818 607.86 644.14 607.737C643.462 607.614 642.892 607.452 642.43 607.252C641.968 607.051 641.591 606.851 641.298 606.651L642.499 604.202C642.715 604.325 643 604.463 643.354 604.617C643.709 604.787 644.132 604.926 644.625 605.033C645.118 605.157 645.688 605.218 646.335 605.218C646.951 605.218 647.49 605.095 647.953 604.848C648.43 604.617 648.8 604.248 649.062 603.739C649.339 603.246 649.478 602.615 649.478 601.845V591.447H652.528V601.752C652.528 603.046 652.281 604.155 651.788 605.08C651.295 606.019 650.594 606.728 649.685 607.205C648.792 607.683 647.721 607.922 646.474 607.922ZM645.873 602.677C644.81 602.677 643.886 602.445 643.1 601.983C642.33 601.521 641.729 600.874 641.298 600.042C640.867 599.211 640.651 598.225 640.651 597.085C640.651 595.883 640.867 594.844 641.298 593.966C641.729 593.072 642.33 592.387 643.1 591.909C643.886 591.416 644.81 591.17 645.873 591.17C646.797 591.17 647.598 591.416 648.276 591.909C648.954 592.387 649.478 593.072 649.847 593.966C650.217 594.859 650.402 595.922 650.402 597.154C650.402 598.263 650.217 599.234 649.847 600.066C649.478 600.897 648.954 601.544 648.276 602.006C647.598 602.453 646.797 602.677 645.873 602.677ZM646.751 600.112C647.275 600.112 647.729 599.981 648.114 599.719C648.515 599.442 648.823 599.072 649.039 598.61C649.254 598.132 649.362 597.593 649.362 596.992C649.362 596.376 649.246 595.837 649.015 595.375C648.8 594.913 648.492 594.551 648.091 594.289C647.706 594.027 647.252 593.896 646.728 593.896C646.189 593.896 645.711 594.027 645.295 594.289C644.879 594.551 644.556 594.913 644.325 595.375C644.094 595.837 643.971 596.376 643.955 596.992C643.971 597.593 644.094 598.132 644.325 598.61C644.556 599.072 644.879 599.442 645.295 599.719C645.727 599.981 646.212 600.112 646.751 600.112ZM660.582 603.277C659.411 603.277 658.364 603.023 657.44 602.515C656.531 601.991 655.814 601.275 655.291 600.366C654.782 599.457 654.528 598.41 654.528 597.223C654.528 596.037 654.782 594.99 655.291 594.081C655.799 593.172 656.508 592.464 657.416 591.955C658.325 591.432 659.365 591.17 660.536 591.17C661.722 591.17 662.769 591.432 663.678 591.955C664.587 592.464 665.296 593.172 665.804 594.081C666.312 594.99 666.566 596.037 666.566 597.223C666.566 598.41 666.312 599.457 665.804 600.366C665.296 601.275 664.587 601.991 663.678 602.515C662.785 603.023 661.753 603.277 660.582 603.277ZM660.582 600.458C661.152 600.458 661.653 600.32 662.084 600.042C662.515 599.765 662.846 599.388 663.077 598.91C663.324 598.417 663.447 597.855 663.447 597.223C663.447 596.592 663.324 596.037 663.077 595.56C662.831 595.067 662.484 594.682 662.038 594.405C661.606 594.127 661.106 593.989 660.536 593.989C659.981 593.989 659.481 594.127 659.034 594.405C658.603 594.682 658.264 595.067 658.017 595.56C657.771 596.037 657.648 596.592 657.648 597.223C657.648 597.855 657.771 598.417 658.017 598.91C658.264 599.388 658.61 599.765 659.057 600.042C659.504 600.32 660.012 600.458 660.582 600.458ZM668.509 597.431V594.82H675.44V597.431H668.509ZM678.195 603V591.447H681.245V603H678.195ZM679.72 589.575C679.258 589.575 678.849 589.406 678.495 589.067C678.141 588.713 677.964 588.297 677.964 587.819C677.964 587.342 678.141 586.934 678.495 586.595C678.849 586.24 679.258 586.063 679.72 586.063C680.197 586.063 680.605 586.24 680.944 586.595C681.299 586.934 681.476 587.342 681.476 587.819C681.476 588.297 681.299 588.713 680.944 589.067C680.605 589.406 680.197 589.575 679.72 589.575ZM692.283 603L692.121 600.851V586.826H695.171V603H692.283ZM688.655 603.277C687.592 603.277 686.668 603.031 685.883 602.538C685.112 602.045 684.512 601.344 684.08 600.435C683.649 599.526 683.433 598.456 683.433 597.223C683.433 595.976 683.649 594.905 684.08 594.012C684.512 593.103 685.112 592.402 685.883 591.909C686.668 591.416 687.592 591.17 688.655 591.17C689.626 591.17 690.442 591.416 691.105 591.909C691.782 592.402 692.298 593.103 692.653 594.012C693.007 594.905 693.184 595.976 693.184 597.223C693.184 598.456 693.007 599.526 692.653 600.435C692.298 601.344 691.782 602.045 691.105 602.538C690.442 603.031 689.626 603.277 688.655 603.277ZM689.441 600.481C689.965 600.481 690.427 600.343 690.827 600.066C691.243 599.788 691.567 599.403 691.798 598.91C692.029 598.417 692.144 597.855 692.144 597.223C692.144 596.592 692.029 596.03 691.798 595.537C691.567 595.044 691.243 594.666 690.827 594.405C690.427 594.127 689.957 593.989 689.418 593.989C688.863 593.989 688.378 594.127 687.962 594.405C687.546 594.666 687.215 595.044 686.969 595.537C686.722 596.03 686.599 596.592 686.599 597.223C686.599 597.855 686.722 598.417 686.969 598.91C687.215 599.403 687.546 599.788 687.962 600.066C688.393 600.343 688.886 600.481 689.441 600.481ZM703.021 603.277C701.881 603.277 700.872 603.023 699.994 602.515C699.116 601.991 698.423 601.275 697.915 600.366C697.422 599.457 697.175 598.41 697.175 597.223C697.175 596.037 697.429 594.99 697.938 594.081C698.461 593.172 699.17 592.464 700.063 591.955C700.972 591.432 702.012 591.17 703.183 591.17C704.199 591.17 705.131 591.439 705.979 591.978C706.841 592.502 707.527 593.28 708.035 594.312C708.559 595.329 708.821 596.569 708.821 598.032H700.063L700.341 597.755C700.341 598.325 700.479 598.826 700.757 599.257C701.049 599.673 701.419 599.996 701.866 600.227C702.328 600.443 702.821 600.551 703.344 600.551C703.976 600.551 704.492 600.42 704.893 600.158C705.293 599.881 705.601 599.526 705.817 599.095L708.543 600.158C708.22 600.805 707.796 601.367 707.272 601.845C706.764 602.307 706.156 602.661 705.447 602.908C704.739 603.154 703.93 603.277 703.021 603.277ZM700.502 596.045L700.225 595.768H705.794L705.54 596.045C705.54 595.491 705.409 595.052 705.147 594.728C704.885 594.389 704.561 594.143 704.176 593.989C703.807 593.835 703.445 593.758 703.09 593.758C702.736 593.758 702.359 593.835 701.958 593.989C701.558 594.143 701.211 594.389 700.918 594.728C700.641 595.052 700.502 595.491 700.502 596.045ZM710.593 603V591.447H713.458L713.643 593.573V603H710.593ZM718.241 603V597.085H721.291V603H718.241ZM718.241 597.085C718.241 596.299 718.149 595.691 717.964 595.259C717.794 594.828 717.548 594.52 717.225 594.335C716.901 594.135 716.524 594.035 716.092 594.035C715.307 594.019 714.698 594.258 714.267 594.751C713.851 595.244 713.643 595.976 713.643 596.946H712.626C712.626 595.714 712.804 594.674 713.158 593.827C713.528 592.964 714.036 592.31 714.683 591.863C715.345 591.401 716.115 591.17 716.993 591.17C717.902 591.17 718.68 591.355 719.327 591.724C719.974 592.094 720.467 592.672 720.806 593.457C721.145 594.227 721.307 595.229 721.291 596.461V597.085H718.241ZM728.485 603.277C727.207 603.277 726.236 602.961 725.574 602.33C724.927 601.698 724.604 600.797 724.604 599.627V587.842H727.654V598.956C727.654 599.449 727.761 599.827 727.977 600.089C728.193 600.335 728.509 600.458 728.924 600.458C729.079 600.458 729.248 600.428 729.433 600.366C729.618 600.289 729.81 600.181 730.01 600.042L731.073 602.33C730.704 602.607 730.288 602.831 729.826 603C729.379 603.185 728.932 603.277 728.485 603.277ZM722.732 594.035V591.447H730.542V594.035H722.732ZM733.207 603V591.447H736.257V603H733.207ZM734.732 589.575C734.27 589.575 733.862 589.406 733.507 589.067C733.153 588.713 732.976 588.297 732.976 587.819C732.976 587.342 733.153 586.934 733.507 586.595C733.862 586.24 734.27 586.063 734.732 586.063C735.21 586.063 735.618 586.24 735.957 586.595C736.311 586.934 736.488 587.342 736.488 587.819C736.488 588.297 736.311 588.713 735.957 589.067C735.618 589.406 735.21 589.575 734.732 589.575ZM740.225 603V590.292C740.225 589.059 740.541 588.104 741.172 587.427C741.804 586.733 742.766 586.387 744.06 586.387C744.507 586.387 744.977 586.464 745.47 586.618C745.978 586.772 746.44 586.957 746.856 587.172L745.724 589.367C745.478 589.244 745.254 589.152 745.054 589.09C744.854 589.029 744.669 588.998 744.499 588.998C744.084 588.998 743.775 589.144 743.575 589.437C743.375 589.714 743.275 590.168 743.275 590.8V603H740.225ZM738.307 593.896V591.447H746.117V593.896H738.307ZM748.325 603V591.447H751.375V603H748.325ZM749.85 589.575C749.388 589.575 748.98 589.406 748.626 589.067C748.271 588.713 748.094 588.297 748.094 587.819C748.094 587.342 748.271 586.934 748.626 586.595C748.98 586.24 749.388 586.063 749.85 586.063C750.328 586.063 750.736 586.24 751.075 586.595C751.429 586.934 751.606 587.342 751.606 587.819C751.606 588.297 751.429 588.713 751.075 589.067C750.736 589.406 750.328 589.575 749.85 589.575ZM759.756 603.277C758.555 603.277 757.484 603.023 756.545 602.515C755.605 601.991 754.873 601.275 754.349 600.366C753.826 599.442 753.564 598.394 753.564 597.223C753.564 596.037 753.826 594.99 754.349 594.081C754.873 593.172 755.597 592.464 756.521 591.955C757.446 591.432 758.509 591.17 759.71 591.17C760.865 591.17 761.921 591.455 762.876 592.025C763.831 592.595 764.524 593.419 764.955 594.497L762.09 595.514C761.874 595.067 761.535 594.713 761.073 594.451C760.627 594.173 760.126 594.035 759.571 594.035C759.001 594.035 758.501 594.173 758.07 594.451C757.638 594.713 757.299 595.082 757.053 595.56C756.806 596.037 756.683 596.592 756.683 597.223C756.683 597.855 756.806 598.41 757.053 598.887C757.299 599.349 757.646 599.719 758.093 599.996C758.539 600.273 759.048 600.412 759.618 600.412C760.172 600.412 760.673 600.266 761.12 599.973C761.582 599.68 761.921 599.295 762.136 598.818L765.024 599.834C764.578 600.928 763.877 601.775 762.922 602.376C761.982 602.977 760.927 603.277 759.756 603.277ZM773.779 603L773.687 600.666V597.154C773.687 596.461 773.61 595.868 773.456 595.375C773.317 594.882 773.086 594.505 772.763 594.243C772.455 593.966 772.031 593.827 771.492 593.827C770.999 593.827 770.552 593.935 770.152 594.15C769.751 594.366 769.412 594.697 769.135 595.144L766.455 594.22C766.67 593.727 766.986 593.249 767.402 592.787C767.818 592.31 768.357 591.924 769.019 591.632C769.697 591.324 770.521 591.17 771.492 591.17C772.663 591.17 773.633 591.393 774.403 591.84C775.189 592.286 775.766 592.918 776.136 593.734C776.521 594.535 776.706 595.491 776.691 596.6L776.621 603H773.779ZM770.544 603.277C769.158 603.277 768.08 602.969 767.31 602.353C766.555 601.737 766.177 600.867 766.177 599.742C766.177 598.51 766.586 597.585 767.402 596.969C768.234 596.338 769.397 596.022 770.891 596.022H773.826V598.286H771.954C770.953 598.286 770.259 598.41 769.874 598.656C769.489 598.887 769.297 599.218 769.297 599.65C769.297 599.989 769.451 600.258 769.759 600.458C770.067 600.643 770.498 600.736 771.053 600.736C771.561 600.736 772.008 600.62 772.393 600.389C772.793 600.143 773.109 599.834 773.34 599.465C773.571 599.08 773.687 598.687 773.687 598.286H774.426C774.426 599.858 774.126 601.082 773.525 601.96C772.94 602.838 771.946 603.277 770.544 603.277ZM787.347 603L787.186 600.851V586.826H790.236V603H787.347ZM783.72 603.277C782.657 603.277 781.732 603.031 780.947 602.538C780.177 602.045 779.576 601.344 779.145 600.435C778.713 599.526 778.498 598.456 778.498 597.223C778.498 595.976 778.713 594.905 779.145 594.012C779.576 593.103 780.177 592.402 780.947 591.909C781.732 591.416 782.657 591.17 783.72 591.17C784.69 591.17 785.506 591.416 786.169 591.909C786.847 592.402 787.363 593.103 787.717 594.012C788.071 594.905 788.248 595.976 788.248 597.223C788.248 598.456 788.071 599.526 787.717 600.435C787.363 601.344 786.847 602.045 786.169 602.538C785.506 603.031 784.69 603.277 783.72 603.277ZM784.505 600.481C785.029 600.481 785.491 600.343 785.892 600.066C786.307 599.788 786.631 599.403 786.862 598.91C787.093 598.417 787.209 597.855 787.209 597.223C787.209 596.592 787.093 596.03 786.862 595.537C786.631 595.044 786.307 594.666 785.892 594.405C785.491 594.127 785.021 593.989 784.482 593.989C783.928 593.989 783.442 594.127 783.026 594.405C782.611 594.666 782.279 595.044 782.033 595.537C781.786 596.03 781.663 596.592 781.663 597.223C781.663 597.855 781.786 598.417 782.033 598.91C782.279 599.403 782.611 599.788 783.026 600.066C783.458 600.343 783.951 600.481 784.505 600.481ZM798.293 603.277C797.122 603.277 796.075 603.023 795.151 602.515C794.242 601.991 793.526 601.275 793.002 600.366C792.494 599.457 792.239 598.41 792.239 597.223C792.239 596.037 792.494 594.99 793.002 594.081C793.51 593.172 794.219 592.464 795.128 591.955C796.037 591.432 797.076 591.17 798.247 591.17C799.433 591.17 800.481 591.432 801.389 591.955C802.298 592.464 803.007 593.172 803.515 594.081C804.024 594.99 804.278 596.037 804.278 597.223C804.278 598.41 804.024 599.457 803.515 600.366C803.007 601.275 802.298 601.991 801.389 602.515C800.496 603.023 799.464 603.277 798.293 603.277ZM798.293 600.458C798.863 600.458 799.364 600.32 799.795 600.042C800.226 599.765 800.558 599.388 800.789 598.91C801.035 598.417 801.158 597.855 801.158 597.223C801.158 596.592 801.035 596.037 800.789 595.56C800.542 595.067 800.196 594.682 799.749 594.405C799.318 594.127 798.817 593.989 798.247 593.989C797.692 593.989 797.192 594.127 796.745 594.405C796.314 594.682 795.975 595.067 795.728 595.56C795.482 596.037 795.359 596.592 795.359 597.223C795.359 597.855 795.482 598.417 795.728 598.91C795.975 599.388 796.321 599.765 796.768 600.042C797.215 600.32 797.723 600.458 798.293 600.458ZM808.438 596.923C808.438 595.675 808.677 594.643 809.154 593.827C809.647 593.01 810.271 592.402 811.026 592.002C811.796 591.601 812.597 591.401 813.429 591.401V594.358C812.72 594.358 812.05 594.443 811.419 594.612C810.803 594.782 810.302 595.059 809.917 595.444C809.532 595.829 809.339 596.322 809.339 596.923H808.438ZM806.289 603V591.447H809.339V603H806.289ZM817.193 595.144C816.685 595.144 816.246 594.959 815.876 594.589C815.522 594.22 815.345 593.781 815.345 593.272C815.345 592.779 815.522 592.348 815.876 591.978C816.246 591.609 816.685 591.424 817.193 591.424C817.701 591.424 818.133 591.609 818.487 591.978C818.857 592.348 819.042 592.779 819.042 593.272C819.042 593.781 818.857 594.22 818.487 594.589C818.133 594.959 817.701 595.144 817.193 595.144ZM817.216 603.023C816.708 603.023 816.269 602.846 815.899 602.492C815.545 602.122 815.368 601.683 815.368 601.175C815.368 600.666 815.545 600.235 815.899 599.881C816.269 599.511 816.708 599.326 817.216 599.326C817.725 599.326 818.156 599.511 818.51 599.881C818.88 600.235 819.065 600.666 819.065 601.175C819.065 601.683 818.88 602.122 818.51 602.492C818.156 602.846 817.725 603.023 817.216 603.023Z" fill="black"/>
<rect x="587.5" y="618.5" width="128" height="34.5673" rx="17.2837" fill="#E8E8E8" stroke="#51FF00" stroke-width="5"/>
<path d="M602.184 639.719L599.505 635.374L601.008 634.281L604.315 638.161L602.184 639.719ZM598.303 639.773L596.172 638.216L599.478 634.335L600.981 635.428L598.303 639.773ZM599.915 635.756L594.969 634.554L595.789 632.04L600.489 634.007L599.915 635.756ZM599.287 634.882L598.904 629.799H601.528L601.118 634.882H599.287ZM600.489 635.756L599.943 634.007L604.643 632.067L605.463 634.554L600.489 635.756ZM615.527 639.719L612.849 635.374L614.352 634.281L617.659 638.161L615.527 639.719ZM611.646 639.773L609.515 638.216L612.822 634.335L614.325 635.428L611.646 639.773ZM613.259 635.756L608.313 634.554L609.132 632.04L613.833 634.007L613.259 635.756ZM612.63 634.882L612.248 629.799H614.871L614.461 634.882H612.63ZM613.833 635.756L613.286 634.007L617.986 632.067L618.806 634.554L613.833 635.756ZM628.87 639.719L626.192 635.374L627.695 634.281L631.002 638.161L628.87 639.719ZM624.99 639.773L622.858 638.216L626.165 634.335L627.668 635.428L624.99 639.773ZM626.602 635.756L621.656 634.554L622.476 632.04L627.176 634.007L626.602 635.756ZM625.974 634.882L625.591 629.799H628.215L627.805 634.882H625.974ZM627.176 635.756L626.63 634.007L631.33 632.067L632.15 634.554L627.176 635.756ZM642.214 639.719L639.536 635.374L641.039 634.281L644.345 638.161L642.214 639.719ZM638.333 639.773L636.202 638.216L639.508 634.335L641.011 635.428L638.333 639.773ZM639.946 635.756L634.999 634.554L635.819 632.04L640.52 634.007L639.946 635.756ZM639.317 634.882L638.935 629.799H641.558L641.148 634.882H639.317ZM640.52 635.756L639.973 634.007L644.673 632.067L645.493 634.554L640.52 635.756ZM655.557 639.719L652.879 635.374L654.382 634.281L657.689 638.161L655.557 639.719ZM651.677 639.773L649.545 638.216L652.852 634.335L654.355 635.428L651.677 639.773ZM653.289 635.756L648.343 634.554L649.163 632.04L653.863 634.007L653.289 635.756ZM652.661 634.882L652.278 629.799H654.901L654.492 634.882H652.661ZM653.863 635.756L653.316 634.007L658.017 632.067L658.837 634.554L653.863 635.756ZM688.436 639.719L685.757 635.374L687.26 634.281L690.567 638.161L688.436 639.719ZM684.555 639.773L682.424 638.216L685.73 634.335L687.233 635.428L684.555 639.773ZM686.167 635.756L681.221 634.554L682.041 632.04L686.741 634.007L686.167 635.756ZM685.539 634.882L685.156 629.799H687.78L687.37 634.882H685.539ZM686.741 635.756L686.195 634.007L690.895 632.067L691.715 634.554L686.741 635.756ZM701.779 639.719L699.101 635.374L700.604 634.281L703.91 638.161L701.779 639.719ZM697.898 639.773L695.767 638.216L699.074 634.335L700.577 635.428L697.898 639.773ZM699.511 635.756L694.565 634.554L695.384 632.04L700.085 634.007L699.511 635.756ZM698.882 634.882L698.5 629.799H701.123L700.713 634.882H698.882ZM700.085 635.756L699.538 634.007L704.238 632.067L705.058 634.554L700.085 635.756Z" fill="black"/>
<line x1="663.327" y1="635.192" x2="676.39" y2="635.192" stroke="black" stroke-width="2.36538"/>
<g clip-path="url(#clip0_315_13)">
<path d="M449.006 657.519L444.213 662.312L417.4 635.5L444.213 608.687L449.006 613.481L426.988 635.5L449.006 657.519Z" fill="#17EB26"/>
</g>
<line y1="-3.9" x2="163.804" y2="-3.9" transform="matrix(-1 0 0 1 589.65 639.725)" stroke="#17EB26" stroke-width="7.8"/>
<path d="M91.5412 634L106.207 613.273L118.113 596.118H126.934L112.593 615.816L100.471 634H91.5412ZM118.275 634L106.153 615.816L91.8118 596.118H100.633L112.539 613.219L127.205 634H118.275ZM128.271 634L142.937 613.273L154.843 596.118H163.664L149.323 615.816L137.201 634H128.271ZM155.006 634L142.883 615.816L128.542 596.118H137.363L149.269 613.219L163.935 634H155.006ZM165.002 634L179.668 613.273L191.573 596.118H200.395L186.053 615.816L173.931 634H165.002ZM191.736 634L179.613 615.816L165.272 596.118H174.093L185.999 613.219L200.665 634H191.736ZM201.732 634L216.398 613.273L228.304 596.118H237.125L222.784 615.816L210.661 634H201.732ZM228.466 634L216.344 615.816L202.002 596.118H210.824L222.73 613.219L237.395 634H228.466ZM238.462 634L253.128 613.273L265.034 596.118H273.855L259.514 615.816L247.392 634H238.462ZM265.196 634L253.074 615.816L238.733 596.118H247.554L259.46 613.219L274.126 634H265.196ZM277.574 620.958V614.842H293.809V620.958H277.574ZM314.276 634.649C311.21 634.649 308.504 633.82 306.159 632.16C303.814 630.464 301.974 628.155 300.639 625.233C299.304 622.275 298.636 618.883 298.636 615.059C298.636 611.235 299.304 607.861 300.639 604.939C301.974 601.98 303.796 599.671 306.105 598.012C308.45 596.316 311.156 595.468 314.222 595.468C317.289 595.468 319.995 596.316 322.34 598.012C324.721 599.671 326.579 601.98 327.914 604.939C329.249 607.861 329.916 611.235 329.916 615.059C329.916 618.883 329.249 622.275 327.914 625.233C326.579 628.155 324.739 630.464 322.394 632.16C320.049 633.82 317.343 634.649 314.276 634.649ZM314.276 627.939C315.9 627.939 317.343 627.398 318.606 626.315C319.905 625.197 320.915 623.682 321.636 621.769C322.358 619.821 322.719 617.584 322.719 615.059C322.719 612.533 322.358 610.296 321.636 608.348C320.915 606.4 319.905 604.885 318.606 603.802C317.343 602.684 315.882 602.125 314.222 602.125C312.599 602.125 311.156 602.684 309.893 603.802C308.63 604.885 307.638 606.4 306.916 608.348C306.231 610.296 305.888 612.533 305.888 615.059C305.888 617.584 306.231 619.821 306.916 621.769C307.638 623.682 308.63 625.197 309.893 626.315C311.192 627.398 312.653 627.939 314.276 627.939ZM349.368 634.649C346.302 634.649 343.596 633.82 341.251 632.16C338.905 630.464 337.065 628.155 335.731 625.233C334.396 622.275 333.728 618.883 333.728 615.059C333.728 611.235 334.396 607.861 335.731 604.939C337.065 601.98 338.887 599.671 341.196 598.012C343.542 596.316 346.247 595.468 349.314 595.468C352.381 595.468 355.087 596.316 357.432 598.012C359.813 599.671 361.671 601.98 363.006 604.939C364.341 607.861 365.008 611.235 365.008 615.059C365.008 618.883 364.341 622.275 363.006 625.233C361.671 628.155 359.831 630.464 357.486 632.16C355.141 633.82 352.435 634.649 349.368 634.649ZM349.368 627.939C350.992 627.939 352.435 627.398 353.698 626.315C354.996 625.197 356.007 623.682 356.728 621.769C357.45 619.821 357.811 617.584 357.811 615.059C357.811 612.533 357.45 610.296 356.728 608.348C356.007 606.4 354.996 604.885 353.698 603.802C352.435 602.684 350.974 602.125 349.314 602.125C347.691 602.125 346.247 602.684 344.985 603.802C343.722 604.885 342.73 606.4 342.008 608.348C341.323 610.296 340.98 612.533 340.98 615.059C340.98 617.584 341.323 619.821 342.008 621.769C342.73 623.682 343.722 625.197 344.985 626.315C346.284 627.398 347.745 627.939 349.368 627.939Z" fill="black"/>
<path d="M94.992 677.418C94.1333 676.279 93.3493 675.047 92.64 673.722C91.9307 672.378 91.3707 670.959 90.96 669.466C90.5493 667.972 90.344 666.423 90.344 664.818C90.344 663.194 90.5493 661.644 90.96 660.17C91.3707 658.676 91.9307 657.267 92.64 655.942C93.3493 654.598 94.1333 653.356 94.992 652.218H98.632C97.7733 653.412 96.9893 654.691 96.28 656.054C95.5707 657.416 95.0107 658.835 94.6 660.31C94.1893 661.766 93.984 663.268 93.984 664.818C93.984 666.348 94.1893 667.851 94.6 669.326C95.0107 670.8 95.5707 672.219 96.28 673.582C96.9893 674.926 97.7733 676.204 98.632 677.418H94.992ZM107.895 674.954C106.999 674.954 106.075 674.804 105.123 674.506C104.19 674.207 103.341 673.759 102.575 673.162C101.829 672.564 101.278 671.827 100.923 670.95L104.423 669.914C104.834 670.511 105.319 670.95 105.879 671.23C106.458 671.51 107.055 671.65 107.671 671.65C108.642 671.65 109.426 671.36 110.023 670.782C110.639 670.184 110.947 669.391 110.947 668.402C110.947 667.487 110.649 666.722 110.051 666.106C109.473 665.49 108.698 665.182 107.727 665.182C107.149 665.182 106.617 665.312 106.131 665.574C105.646 665.835 105.273 666.143 105.011 666.498L101.567 665.742L102.743 655.018H113.831V658.49H106.019L105.459 663.194C105.963 662.914 106.523 662.69 107.139 662.522C107.755 662.335 108.418 662.251 109.127 662.27C110.191 662.27 111.162 662.531 112.039 663.054C112.917 663.558 113.607 664.258 114.111 665.154C114.634 666.031 114.895 667.058 114.895 668.234C114.895 669.559 114.597 670.726 113.999 671.734C113.402 672.742 112.581 673.535 111.535 674.114C110.49 674.674 109.277 674.954 107.895 674.954ZM124.229 674.618V655.018H127.925V674.618H124.229ZM137.447 674.954C136.066 674.954 134.843 674.646 133.779 674.03C132.715 673.395 131.875 672.527 131.259 671.426C130.662 670.324 130.363 669.055 130.363 667.618C130.363 666.18 130.671 664.911 131.287 663.81C131.922 662.708 132.781 661.85 133.863 661.234C134.965 660.599 136.225 660.282 137.643 660.282C138.875 660.282 140.005 660.608 141.031 661.262C142.077 661.896 142.907 662.839 143.523 664.09C144.158 665.322 144.475 666.824 144.475 668.598H133.863L134.199 668.262C134.199 668.952 134.367 669.559 134.703 670.082C135.058 670.586 135.506 670.978 136.047 671.258C136.607 671.519 137.205 671.65 137.839 671.65C138.605 671.65 139.23 671.491 139.715 671.174C140.201 670.838 140.574 670.408 140.835 669.886L144.139 671.174C143.747 671.958 143.234 672.639 142.599 673.218C141.983 673.778 141.246 674.207 140.387 674.506C139.529 674.804 138.549 674.954 137.447 674.954ZM134.395 666.19L134.059 665.854H140.807L140.499 666.19C140.499 665.518 140.341 664.986 140.023 664.594C139.706 664.183 139.314 663.884 138.847 663.698C138.399 663.511 137.961 663.418 137.531 663.418C137.102 663.418 136.645 663.511 136.159 663.698C135.674 663.884 135.254 664.183 134.899 664.594C134.563 664.986 134.395 665.518 134.395 666.19ZM152.391 674.954C150.842 674.954 149.666 674.571 148.863 673.806C148.079 673.04 147.687 671.948 147.687 670.53V656.25H151.383V669.718C151.383 670.315 151.514 670.772 151.775 671.09C152.037 671.388 152.419 671.538 152.923 671.538C153.11 671.538 153.315 671.5 153.539 671.426C153.763 671.332 153.997 671.202 154.239 671.034L155.527 673.806C155.079 674.142 154.575 674.412 154.015 674.618C153.474 674.842 152.933 674.954 152.391 674.954ZM145.419 663.754V660.618H154.883V663.754H145.419ZM160.493 667.254C160.493 665.742 160.782 664.491 161.361 663.502C161.958 662.512 162.714 661.775 163.629 661.29C164.562 660.804 165.533 660.562 166.541 660.562V664.146C165.682 664.146 164.87 664.248 164.105 664.454C163.358 664.659 162.752 664.995 162.285 665.462C161.818 665.928 161.585 666.526 161.585 667.254H160.493ZM157.889 674.618V660.618H161.585V674.618H157.889ZM176.954 674.618L176.842 671.79V667.534C176.842 666.694 176.749 665.975 176.562 665.378C176.394 664.78 176.114 664.323 175.722 664.006C175.349 663.67 174.836 663.502 174.182 663.502C173.585 663.502 173.044 663.632 172.558 663.894C172.073 664.155 171.662 664.556 171.326 665.098L168.078 663.978C168.34 663.38 168.722 662.802 169.226 662.242C169.73 661.663 170.384 661.196 171.186 660.842C172.008 660.468 173.006 660.282 174.182 660.282C175.601 660.282 176.777 660.552 177.71 661.094C178.662 661.635 179.362 662.4 179.81 663.39C180.277 664.36 180.501 665.518 180.482 666.862L180.398 674.618H176.954ZM173.034 674.954C171.354 674.954 170.048 674.58 169.114 673.834C168.2 673.087 167.742 672.032 167.742 670.67C167.742 669.176 168.237 668.056 169.226 667.31C170.234 666.544 171.644 666.162 173.454 666.162H177.01V668.906H174.742C173.529 668.906 172.689 669.055 172.222 669.354C171.756 669.634 171.522 670.035 171.522 670.558C171.522 670.968 171.709 671.295 172.082 671.538C172.456 671.762 172.978 671.874 173.65 671.874C174.266 671.874 174.808 671.734 175.274 671.454C175.76 671.155 176.142 670.782 176.422 670.334C176.702 669.867 176.842 669.391 176.842 668.906H177.738C177.738 670.81 177.374 672.294 176.646 673.358C175.937 674.422 174.733 674.954 173.034 674.954ZM188.664 674.954C187.768 674.954 186.928 674.823 186.144 674.562C185.36 674.282 184.669 673.89 184.072 673.386C183.475 672.863 183.008 672.228 182.672 671.482L185.836 670.026C186.116 670.474 186.499 670.866 186.984 671.202C187.469 671.519 188.029 671.678 188.664 671.678C189.28 671.678 189.756 671.594 190.092 671.426C190.428 671.239 190.596 670.978 190.596 670.642C190.596 670.306 190.456 670.063 190.176 669.914C189.915 669.746 189.551 669.606 189.084 669.494L187.796 669.158C186.452 668.803 185.388 668.243 184.604 667.478C183.839 666.694 183.456 665.798 183.456 664.79C183.456 663.352 183.913 662.242 184.828 661.458C185.761 660.674 187.077 660.282 188.776 660.282C189.653 660.282 190.465 660.412 191.212 660.674C191.977 660.935 192.631 661.299 193.172 661.766C193.713 662.232 194.087 662.774 194.292 663.39L191.24 664.79C191.109 664.416 190.792 664.118 190.288 663.894C189.784 663.651 189.28 663.53 188.776 663.53C188.272 663.53 187.88 663.642 187.6 663.866C187.339 664.071 187.208 664.36 187.208 664.734C187.208 664.976 187.339 665.182 187.6 665.35C187.861 665.499 188.235 665.63 188.72 665.742L190.54 666.19C191.455 666.414 192.183 666.778 192.724 667.282C193.284 667.767 193.685 668.318 193.928 668.934C194.189 669.531 194.32 670.119 194.32 670.698C194.32 671.538 194.068 672.284 193.564 672.938C193.079 673.572 192.407 674.067 191.548 674.422C190.708 674.776 189.747 674.954 188.664 674.954ZM203.059 667.87V664.706H211.459V667.87H203.059ZM221.076 674.618V671.79C221.076 671.248 221.244 670.651 221.58 669.998C221.916 669.344 222.383 668.691 222.98 668.038C223.578 667.384 224.278 666.778 225.08 666.218L228.048 664.09C228.459 663.81 228.842 663.492 229.196 663.138C229.57 662.783 229.868 662.4 230.092 661.99C230.335 661.56 230.456 661.15 230.456 660.758C230.456 660.272 230.335 659.834 230.092 659.442C229.868 659.05 229.532 658.742 229.084 658.518C228.636 658.294 228.086 658.182 227.432 658.182C226.872 658.182 226.368 658.294 225.92 658.518C225.491 658.742 225.136 659.04 224.856 659.414C224.576 659.787 224.38 660.188 224.268 660.618L220.32 659.946C220.507 659.012 220.908 658.144 221.524 657.342C222.14 656.539 222.943 655.895 223.932 655.41C224.94 654.906 226.079 654.654 227.348 654.654C228.804 654.654 230.055 654.915 231.1 655.438C232.146 655.96 232.948 656.679 233.508 657.594C234.087 658.49 234.376 659.535 234.376 660.73C234.376 661.943 234.04 663.026 233.368 663.978C232.715 664.911 231.81 665.788 230.652 666.61L227.992 668.542C227.451 668.915 226.984 669.326 226.592 669.774C226.2 670.222 225.902 670.716 225.696 671.258H234.628V674.618H221.076ZM244.131 674.618V660.618H247.603L247.827 663.194V674.618H244.131ZM253.399 674.618V667.45H257.095V674.618H253.399ZM253.399 667.45C253.399 666.498 253.287 665.76 253.063 665.238C252.858 664.715 252.559 664.342 252.167 664.118C251.775 663.875 251.318 663.754 250.795 663.754C249.843 663.735 249.106 664.024 248.583 664.622C248.079 665.219 247.827 666.106 247.827 667.282H246.595C246.595 665.788 246.81 664.528 247.239 663.502C247.687 662.456 248.303 661.663 249.087 661.122C249.89 660.562 250.823 660.282 251.887 660.282C252.988 660.282 253.931 660.506 254.715 660.954C255.499 661.402 256.096 662.102 256.507 663.054C256.918 663.987 257.114 665.2 257.095 666.694V667.45H253.399ZM269.285 674.618L269.061 672.042V660.618H272.757V674.618H269.285ZM259.793 667.786V660.618H263.489V667.786H259.793ZM263.489 667.786C263.489 668.719 263.592 669.456 263.797 669.998C264.021 670.52 264.329 670.903 264.721 671.146C265.132 671.37 265.589 671.482 266.093 671.482C267.064 671.5 267.801 671.211 268.305 670.614C268.809 669.998 269.061 669.111 269.061 667.954H270.321C270.321 669.447 270.097 670.716 269.649 671.762C269.201 672.788 268.585 673.582 267.801 674.142C267.017 674.683 266.093 674.954 265.029 674.954C263.909 674.954 262.957 674.73 262.173 674.282C261.389 673.834 260.792 673.143 260.381 672.21C259.989 671.258 259.793 670.035 259.793 668.542V667.786H263.489ZM263.993 658.882L267.185 655.018H271.329L267.717 658.882H263.993ZM275.959 674.618V660.618H279.431L279.599 662.438C280.029 661.728 280.579 661.196 281.251 660.842C281.923 660.468 282.67 660.282 283.491 660.282C284.63 660.282 285.582 660.524 286.347 661.01C287.131 661.495 287.701 662.242 288.055 663.25C288.466 662.298 289.045 661.57 289.791 661.066C290.538 660.543 291.406 660.282 292.395 660.282C294.038 660.282 295.289 660.804 296.147 661.85C297.006 662.876 297.435 664.463 297.435 666.61V674.618H293.739V667.45C293.739 666.498 293.637 665.76 293.431 665.238C293.226 664.715 292.946 664.342 292.591 664.118C292.237 663.875 291.817 663.754 291.331 663.754C290.435 663.735 289.745 664.024 289.259 664.622C288.774 665.219 288.531 666.106 288.531 667.282V674.618H284.835V667.45C284.835 666.498 284.733 665.76 284.527 665.238C284.341 664.715 284.061 664.342 283.687 664.118C283.333 663.875 282.913 663.754 282.427 663.754C281.531 663.735 280.841 664.024 280.355 664.622C279.889 665.219 279.655 666.106 279.655 667.282V674.618H275.959ZM306.705 674.954C305.324 674.954 304.101 674.646 303.037 674.03C301.973 673.395 301.133 672.527 300.517 671.426C299.92 670.324 299.621 669.055 299.621 667.618C299.621 666.18 299.929 664.911 300.545 663.81C301.18 662.708 302.039 661.85 303.121 661.234C304.223 660.599 305.483 660.282 306.901 660.282C308.133 660.282 309.263 660.608 310.289 661.262C311.335 661.896 312.165 662.839 312.781 664.09C313.416 665.322 313.733 666.824 313.733 668.598H303.121L303.457 668.262C303.457 668.952 303.625 669.559 303.961 670.082C304.316 670.586 304.764 670.978 305.305 671.258C305.865 671.519 306.463 671.65 307.097 671.65C307.863 671.65 308.488 671.491 308.973 671.174C309.459 670.838 309.832 670.408 310.093 669.886L313.397 671.174C313.005 671.958 312.492 672.639 311.857 673.218C311.241 673.778 310.504 674.207 309.645 674.506C308.787 674.804 307.807 674.954 306.705 674.954ZM303.653 666.19L303.317 665.854H310.065L309.757 666.19C309.757 665.518 309.599 664.986 309.281 664.594C308.964 664.183 308.572 663.884 308.105 663.698C307.657 663.511 307.219 663.418 306.789 663.418C306.36 663.418 305.903 663.511 305.417 663.698C304.932 663.884 304.512 664.183 304.157 664.594C303.821 664.986 303.653 665.518 303.653 666.19ZM318.485 667.254C318.485 665.742 318.774 664.491 319.353 663.502C319.95 662.512 320.706 661.775 321.621 661.29C322.554 660.804 323.525 660.562 324.533 660.562V664.146C323.674 664.146 322.862 664.248 322.097 664.454C321.35 664.659 320.744 664.995 320.277 665.462C319.81 665.928 319.577 666.526 319.577 667.254H318.485ZM315.881 674.618V660.618H319.577V674.618H315.881ZM333.071 674.954C331.652 674.954 330.383 674.646 329.263 674.03C328.161 673.395 327.293 672.527 326.659 671.426C326.043 670.324 325.735 669.055 325.735 667.618C325.735 666.18 326.043 664.911 326.659 663.81C327.275 662.708 328.133 661.85 329.235 661.234C330.336 660.599 331.596 660.282 333.015 660.282C334.452 660.282 335.721 660.599 336.823 661.234C337.924 661.85 338.783 662.708 339.399 663.81C340.015 664.911 340.323 666.18 340.323 667.618C340.323 669.055 340.015 670.324 339.399 671.426C338.783 672.527 337.924 673.395 336.823 674.03C335.74 674.646 334.489 674.954 333.071 674.954ZM333.071 671.538C333.761 671.538 334.368 671.37 334.891 671.034C335.413 670.698 335.815 670.24 336.095 669.662C336.393 669.064 336.543 668.383 336.543 667.618C336.543 666.852 336.393 666.18 336.095 665.602C335.796 665.004 335.376 664.538 334.835 664.202C334.312 663.866 333.705 663.698 333.015 663.698C332.343 663.698 331.736 663.866 331.195 664.202C330.672 664.538 330.261 665.004 329.963 665.602C329.664 666.18 329.515 666.852 329.515 667.618C329.515 668.383 329.664 669.064 329.963 669.662C330.261 670.24 330.681 670.698 331.223 671.034C331.764 671.37 332.38 671.538 333.071 671.538ZM347.996 674.954C347.1 674.954 346.26 674.823 345.476 674.562C344.692 674.282 344.001 673.89 343.404 673.386C342.807 672.863 342.34 672.228 342.004 671.482L345.168 670.026C345.448 670.474 345.831 670.866 346.316 671.202C346.801 671.519 347.361 671.678 347.996 671.678C348.612 671.678 349.088 671.594 349.424 671.426C349.76 671.239 349.928 670.978 349.928 670.642C349.928 670.306 349.788 670.063 349.508 669.914C349.247 669.746 348.883 669.606 348.416 669.494L347.128 669.158C345.784 668.803 344.72 668.243 343.936 667.478C343.171 666.694 342.788 665.798 342.788 664.79C342.788 663.352 343.245 662.242 344.16 661.458C345.093 660.674 346.409 660.282 348.108 660.282C348.985 660.282 349.797 660.412 350.544 660.674C351.309 660.935 351.963 661.299 352.504 661.766C353.045 662.232 353.419 662.774 353.624 663.39L350.572 664.79C350.441 664.416 350.124 664.118 349.62 663.894C349.116 663.651 348.612 663.53 348.108 663.53C347.604 663.53 347.212 663.642 346.932 663.866C346.671 664.071 346.54 664.36 346.54 664.734C346.54 664.976 346.671 665.182 346.932 665.35C347.193 665.499 347.567 665.63 348.052 665.742L349.872 666.19C350.787 666.414 351.515 666.778 352.056 667.282C352.616 667.767 353.017 668.318 353.26 668.934C353.521 669.531 353.652 670.119 353.652 670.698C353.652 671.538 353.4 672.284 352.896 672.938C352.411 673.572 351.739 674.067 350.88 674.422C350.04 674.776 349.079 674.954 347.996 674.954ZM358.911 677.418H355.271C356.148 676.204 356.932 674.926 357.623 673.582C358.332 672.219 358.892 670.8 359.303 669.326C359.714 667.851 359.919 666.348 359.919 664.818C359.919 663.268 359.714 661.766 359.303 660.31C358.892 658.835 358.332 657.416 357.623 656.054C356.932 654.691 356.148 653.412 355.271 652.218H358.911C359.788 653.356 360.572 654.598 361.263 655.942C361.972 657.267 362.532 658.676 362.943 660.17C363.354 661.644 363.559 663.194 363.559 664.818C363.559 666.423 363.354 667.972 362.943 669.466C362.532 670.959 361.972 672.378 361.263 673.722C360.572 675.047 359.788 676.279 358.911 677.418Z" fill="black"/>
<defs>
<clipPath id="clip0_315_13">
<rect width="65" height="65" fill="white" transform="matrix(1 0 0 -1 407 668)"/>
</clipPath>
</defs>
</svg>
