<svg width="1440" height="1024" viewBox="0 0 1440 1024" fill="none" xmlns="http://www.w3.org/2000/svg">
<rect width="1440" height="1024" rx="60" fill="#E8E8E8"/>
<line x1="316.5" y1="792" x2="316.5" y2="869" stroke="black"/>
<line x1="1124.5" y1="792" x2="1124.5" y2="869" stroke="black"/>
<line y1="-0.5" x2="805.645" y2="-0.5" transform="matrix(0.999999 -0.00124124 0.00076533 1 318.355 831)" stroke="black"/>
<path d="M680.338 871.48C678.391 871.48 676.765 871.107 675.458 870.36C674.178 869.613 673.151 868.6 672.378 867.32C671.631 866.04 671.098 864.573 670.778 862.92C670.485 861.24 670.338 859.48 670.338 857.64C670.338 855.16 670.591 852.973 671.098 851.08C671.631 849.187 672.365 847.613 673.298 846.36C674.231 845.08 675.338 844.12 676.618 843.48C677.898 842.84 679.311 842.52 680.858 842.52C682.218 842.52 683.578 842.747 684.938 843.2C686.298 843.627 687.511 844.227 688.578 845L687.018 846.8C686.165 846.187 685.231 845.707 684.218 845.36C683.205 845.013 682.218 844.84 681.258 844.84C678.298 844.84 676.058 846.08 674.538 848.56C673.045 851.013 672.391 854.72 672.578 859.68L672.018 859C672.658 857.32 673.711 855.987 675.178 855C676.645 854.013 678.365 853.52 680.338 853.52C682.151 853.52 683.751 853.907 685.138 854.68C686.551 855.427 687.645 856.48 688.418 857.84C689.218 859.173 689.618 860.72 689.618 862.48C689.618 864.24 689.218 865.8 688.418 867.16C687.645 868.52 686.551 869.587 685.138 870.36C683.751 871.107 682.151 871.48 680.338 871.48ZM680.338 869.16C681.645 869.16 682.805 868.88 683.818 868.32C684.831 867.76 685.618 866.973 686.178 865.96C686.765 864.947 687.058 863.787 687.058 862.48C687.058 861.173 686.765 860.027 686.178 859.04C685.618 858.027 684.831 857.24 683.818 856.68C682.805 856.12 681.645 855.84 680.338 855.84C679.031 855.84 677.858 856.12 676.818 856.68C675.805 857.24 675.005 858.027 674.418 859.04C673.858 860.027 673.578 861.173 673.578 862.48C673.578 863.787 673.858 864.947 674.418 865.96C675.005 866.973 675.805 867.76 676.818 868.32C677.858 868.88 679.031 869.16 680.338 869.16ZM703.561 871.48C701.454 871.48 699.587 870.867 697.961 869.64C696.361 868.387 695.094 866.68 694.161 864.52C693.254 862.333 692.801 859.827 692.801 857C692.801 854.173 693.254 851.68 694.161 849.52C695.094 847.333 696.361 845.627 697.961 844.4C699.587 843.147 701.454 842.52 703.561 842.52C705.667 842.52 707.521 843.147 709.121 844.4C710.747 845.627 712.014 847.333 712.921 849.52C713.854 851.68 714.321 854.173 714.321 857C714.321 859.827 713.854 862.333 712.921 864.52C712.014 866.68 710.747 868.387 709.121 869.64C707.521 870.867 705.667 871.48 703.561 871.48ZM703.561 869.16C705.161 869.16 706.574 868.64 707.801 867.6C709.054 866.56 710.027 865.133 710.721 863.32C711.414 861.48 711.761 859.373 711.761 857C711.761 854.627 711.414 852.533 710.721 850.72C710.027 848.88 709.054 847.44 707.801 846.4C706.574 845.36 705.161 844.84 703.561 844.84C701.961 844.84 700.534 845.36 699.281 846.4C698.054 847.44 697.094 848.88 696.401 850.72C695.707 852.533 695.361 854.627 695.361 857C695.361 859.373 695.707 861.48 696.401 863.32C697.094 865.133 698.054 866.56 699.281 867.6C700.534 868.64 701.961 869.16 703.561 869.16ZM727.949 871.48C726.029 871.48 724.322 871.04 722.829 870.16C721.362 869.253 720.202 868.013 719.349 866.44C718.522 864.867 718.109 863.053 718.109 861C718.109 858.947 718.522 857.133 719.349 855.56C720.175 853.987 721.322 852.76 722.789 851.88C724.282 850.973 725.975 850.52 727.869 850.52C729.762 850.52 731.442 850.947 732.909 851.8C734.375 852.627 735.509 853.787 736.309 855.28L734.229 856.4C733.615 855.253 732.749 854.36 731.629 853.72C730.535 853.053 729.282 852.72 727.869 852.72C726.429 852.72 725.149 853.08 724.029 853.8C722.935 854.493 722.069 855.467 721.429 856.72C720.815 857.947 720.509 859.373 720.509 861C720.509 862.627 720.829 864.067 721.469 865.32C722.109 866.547 722.989 867.52 724.109 868.24C725.229 868.933 726.509 869.28 727.949 869.28C729.389 869.28 730.669 868.92 731.789 868.2C732.909 867.453 733.762 866.427 734.349 865.12L736.469 866.24C735.669 867.867 734.522 869.147 733.029 870.08C731.562 871.013 729.869 871.48 727.949 871.48ZM740.871 871V851H743.111L743.231 853.88C743.844 852.787 744.631 851.96 745.591 851.4C746.578 850.813 747.724 850.52 749.031 850.52C750.604 850.52 751.964 850.907 753.111 851.68C754.258 852.427 755.084 853.587 755.591 855.16C756.151 853.667 756.964 852.52 758.031 851.72C759.124 850.92 760.444 850.52 761.991 850.52C764.178 850.52 765.924 851.267 767.231 852.76C768.564 854.253 769.218 856.52 769.191 859.56V871H766.791V860.76C766.791 858.547 766.551 856.867 766.071 855.72C765.618 854.573 765.004 853.8 764.231 853.4C763.458 852.973 762.578 852.76 761.591 852.76C759.911 852.76 758.591 853.467 757.631 854.88C756.698 856.267 756.231 858.213 756.231 860.72V871H753.831V860.76C753.831 858.547 753.591 856.867 753.111 855.72C752.658 854.573 752.044 853.8 751.271 853.4C750.498 852.973 749.618 852.76 748.631 852.76C746.951 852.76 745.631 853.467 744.671 854.88C743.738 856.267 743.271 858.213 743.271 860.72V871H740.871Z" fill="black"/>
<line x1="1124" y1="231.5" x2="1201" y2="231.5" stroke="black"/>
<line x1="1124" y1="791.5" x2="1201" y2="791.5" stroke="black"/>
<line x1="1162.5" y1="232" x2="1162.52" y2="792" stroke="black"/>
<path d="M1200 548.526H1192.72V561.406H1190.76L1172 548.526V546.006H1190.36V539.966H1192.72V546.006H1200V548.526ZM1190.36 558.246V548.526H1176.12L1190.36 558.246ZM1200.48 527.198C1200.48 528.238 1200.33 529.318 1200.04 530.438C1199.75 531.531 1199.28 532.584 1198.64 533.598C1198 534.584 1197.16 535.438 1196.12 536.158L1194.56 534.358C1195.84 533.264 1196.77 532.118 1197.36 530.918C1197.95 529.718 1198.24 528.478 1198.24 527.198C1198.24 525.171 1197.63 523.531 1196.4 522.278C1195.15 520.998 1193.52 520.358 1191.52 520.358C1189.49 520.358 1187.87 520.971 1186.64 522.198C1185.39 523.424 1184.76 525.024 1184.76 526.998C1184.76 528.064 1184.99 529.131 1185.44 530.198C1185.89 531.238 1186.47 532.051 1187.16 532.638L1186.6 534.958L1172 533.758V519.158H1174.32V531.398L1184.08 532.238C1183.6 531.464 1183.23 530.624 1182.96 529.718C1182.67 528.811 1182.52 527.904 1182.52 526.998C1182.52 525.211 1182.91 523.638 1183.68 522.278C1184.43 520.918 1185.48 519.851 1186.84 519.078C1188.2 518.278 1189.76 517.878 1191.52 517.878C1193.28 517.878 1194.84 518.278 1196.2 519.078C1197.53 519.878 1198.59 520.984 1199.36 522.398C1200.11 523.784 1200.48 525.384 1200.48 527.198ZM1200.48 504.227C1200.48 506.147 1200.04 507.854 1199.16 509.347C1198.25 510.814 1197.01 511.974 1195.44 512.827C1193.87 513.654 1192.05 514.067 1190 514.067C1187.95 514.067 1186.13 513.654 1184.56 512.827C1182.99 512.001 1181.76 510.854 1180.88 509.387C1179.97 507.894 1179.52 506.201 1179.52 504.307C1179.52 502.414 1179.95 500.734 1180.8 499.267C1181.63 497.801 1182.79 496.667 1184.28 495.867L1185.4 497.947C1184.25 498.561 1183.36 499.427 1182.72 500.547C1182.05 501.641 1181.72 502.894 1181.72 504.307C1181.72 505.747 1182.08 507.027 1182.8 508.147C1183.49 509.241 1184.47 510.107 1185.72 510.747C1186.95 511.361 1188.37 511.667 1190 511.667C1191.63 511.667 1193.07 511.347 1194.32 510.707C1195.55 510.067 1196.52 509.187 1197.24 508.067C1197.93 506.947 1198.28 505.667 1198.28 504.227C1198.28 502.787 1197.92 501.507 1197.2 500.387C1196.45 499.267 1195.43 498.414 1194.12 497.827L1195.24 495.707C1196.87 496.507 1198.15 497.654 1199.08 499.147C1200.01 500.614 1200.48 502.307 1200.48 504.227ZM1200 491.305H1180V489.065L1182.88 488.945C1181.79 488.331 1180.96 487.545 1180.4 486.585C1179.81 485.598 1179.52 484.451 1179.52 483.145C1179.52 481.571 1179.91 480.211 1180.68 479.065C1181.43 477.918 1182.59 477.091 1184.16 476.585C1182.67 476.025 1181.52 475.211 1180.72 474.145C1179.92 473.051 1179.52 471.731 1179.52 470.185C1179.52 467.998 1180.27 466.251 1181.76 464.945C1183.25 463.611 1185.52 462.958 1188.56 462.985H1200V465.385H1189.76C1187.55 465.385 1185.87 465.625 1184.72 466.105C1183.57 466.558 1182.8 467.171 1182.4 467.945C1181.97 468.718 1181.76 469.598 1181.76 470.585C1181.76 472.265 1182.47 473.585 1183.88 474.545C1185.27 475.478 1187.21 475.945 1189.72 475.945H1200V478.345H1189.76C1187.55 478.345 1185.87 478.585 1184.72 479.065C1183.57 479.518 1182.8 480.131 1182.4 480.905C1181.97 481.678 1181.76 482.558 1181.76 483.545C1181.76 485.225 1182.47 486.545 1183.88 487.505C1185.27 488.438 1187.21 488.905 1189.72 488.905H1200V491.305Z" fill="black"/>
<rect x="321" y="237" width="798" height="550" rx="57" fill="#E8E8E8" stroke="black" stroke-width="10"/>
<path d="M600.327 327.779C597.945 327.779 595.759 327.498 593.768 326.935C591.819 326.372 590.088 325.593 588.572 324.597C587.1 323.601 585.866 322.497 584.871 321.285C583.918 320.03 583.247 318.731 582.857 317.389L590.261 315.116C590.824 316.718 591.928 318.125 593.573 319.337C595.218 320.549 597.253 321.177 599.677 321.22C602.491 321.22 604.721 320.636 606.366 319.467C608.011 318.298 608.834 316.761 608.834 314.856C608.834 313.124 608.141 311.717 606.756 310.635C605.37 309.509 603.509 308.643 601.171 308.037L595.586 306.608C593.464 306.046 591.538 305.223 589.806 304.141C588.118 303.058 586.776 301.695 585.78 300.049C584.827 298.404 584.351 296.456 584.351 294.205C584.351 289.962 585.736 286.672 588.507 284.334C591.278 281.952 595.24 280.762 600.392 280.762C603.292 280.762 605.825 281.216 607.99 282.126C610.198 282.992 612.016 284.204 613.445 285.762C614.873 287.278 615.934 289.009 616.627 290.958L609.353 293.296C608.704 291.564 607.578 290.135 605.976 289.009C604.375 287.884 602.383 287.321 600.002 287.321C597.534 287.321 595.586 287.905 594.157 289.074C592.772 290.243 592.079 291.867 592.079 293.945C592.079 295.633 592.62 296.954 593.703 297.906C594.828 298.816 596.344 299.508 598.248 299.984L603.833 301.348C607.903 302.344 611.064 304.054 613.315 306.479C615.566 308.903 616.692 311.587 616.692 314.531C616.692 317.129 616.064 319.424 614.808 321.415C613.553 323.407 611.691 324.965 609.224 326.091C606.799 327.216 603.833 327.779 600.327 327.779ZM642.366 327.909C638.773 327.909 635.612 327.195 632.885 325.766C630.201 324.294 628.101 322.238 626.586 319.597C625.114 316.956 624.378 313.882 624.378 310.375V281.541H631.911V310.375C631.911 312.496 632.344 314.358 633.21 315.96C634.119 317.519 635.374 318.752 636.976 319.662C638.578 320.528 640.418 320.96 642.496 320.96C644.618 320.96 646.479 320.528 648.081 319.662C649.726 318.752 650.982 317.519 651.848 315.96C652.714 314.358 653.147 312.496 653.147 310.375V281.541H660.68V310.375C660.68 313.882 659.922 316.956 658.407 319.597C656.935 322.238 654.813 324.294 652.043 325.766C649.315 327.195 646.09 327.909 642.366 327.909ZM670.816 327V281.541H678.609L702.767 314.401V281.541H710.3V327H702.767L678.349 293.75V327H670.816ZM721.107 327V281.541H736.108C739.226 281.541 741.91 282.017 744.161 282.97C746.456 283.922 748.231 285.351 749.486 287.256C750.742 289.118 751.37 291.456 751.37 294.27C751.37 296.218 750.893 297.971 749.941 299.53C749.032 301.088 747.733 302.387 746.044 303.426C748.252 304.509 749.941 305.959 751.11 307.777C752.279 309.596 752.863 311.76 752.863 314.272C752.863 316.956 752.257 319.25 751.045 321.155C749.833 323.06 748.123 324.511 745.915 325.506C743.707 326.502 741.087 327 738.057 327H721.107ZM728.51 320.246H737.472C739.853 320.246 741.737 319.662 743.122 318.493C744.508 317.324 745.2 315.744 745.2 313.752C745.2 311.587 744.421 309.899 742.862 308.687C741.347 307.474 739.204 306.868 736.433 306.868H728.51V320.246ZM728.51 300.634H736.758C738.923 300.634 740.611 300.071 741.823 298.945C743.079 297.776 743.707 296.175 743.707 294.14C743.707 292.062 742.992 290.481 741.564 289.399C740.178 288.273 738.23 287.711 735.719 287.711H728.51V300.634ZM781.068 327.779C776.565 327.779 772.582 326.784 769.118 324.792C765.655 322.8 762.927 320.03 760.936 316.48C758.988 312.929 758.013 308.86 758.013 304.271C758.013 299.681 758.988 295.633 760.936 292.127C762.927 288.576 765.633 285.806 769.053 283.814C772.474 281.779 776.413 280.762 780.873 280.762C785.375 280.762 789.337 281.779 792.757 283.814C796.22 285.806 798.905 288.576 800.81 292.127C802.758 295.633 803.732 299.681 803.732 304.271C803.732 308.86 802.758 312.929 800.81 316.48C798.905 320.03 796.242 322.8 792.822 324.792C789.445 326.784 785.527 327.779 781.068 327.779ZM781.068 320.896C784.012 320.896 786.609 320.181 788.86 318.752C791.112 317.324 792.865 315.376 794.121 312.908C795.42 310.397 796.069 307.518 796.069 304.271C796.069 301.067 795.42 298.209 794.121 295.698C792.822 293.187 791.025 291.239 788.731 289.854C786.479 288.425 783.86 287.711 780.873 287.711C777.929 287.711 775.309 288.425 773.015 289.854C770.764 291.239 768.967 293.187 767.625 295.698C766.326 298.166 765.676 301.024 765.676 304.271C765.676 307.518 766.326 310.397 767.625 312.908C768.967 315.376 770.785 317.324 773.08 318.752C775.418 320.181 778.08 320.896 781.068 320.896ZM806.992 327L824.591 302.063L838.943 281.541H847.905L830.696 305.31L816.084 327H806.992ZM839.008 327L824.461 305.31L807.187 281.541H816.214L830.566 302.063L848.1 327H839.008Z" fill="black"/>
<line x1="311" y1="666.011" x2="311" y2="484" stroke="black" stroke-width="10"/>
</svg>
