<svg width="1440" height="1024" viewBox="0 0 1440 1024" fill="none" xmlns="http://www.w3.org/2000/svg">
<rect width="1440" height="1024" rx="60" fill="#E8E8E8"/>
<line x1="211.5" y1="871" x2="211.5" y2="948" stroke="black"/>
<line x1="1230.5" y1="871" x2="1230.5" y2="948" stroke="black"/>
<line y1="-0.5" x2="1016.03" y2="-0.5" transform="matrix(0.999999 -0.000984223 0.000965186 1 213.97 910)" stroke="black"/>
<path d="M680.706 921.52C682.68 921.52 684.306 921.893 685.586 922.64C686.866 923.387 687.88 924.4 688.626 925.68C689.4 926.96 689.933 928.44 690.226 930.12C690.546 931.773 690.706 933.52 690.706 935.36C690.706 937.84 690.44 940.027 689.906 941.92C689.4 943.813 688.68 945.4 687.746 946.68C686.813 947.933 685.706 948.88 684.426 949.52C683.146 950.16 681.733 950.48 680.186 950.48C678.826 950.48 677.466 950.267 676.106 949.84C674.746 949.387 673.533 948.773 672.466 948L674.026 946.2C674.88 946.813 675.813 947.293 676.826 947.64C677.84 947.987 678.826 948.16 679.786 948.16C682.746 948.16 684.986 946.933 686.506 944.48C688.026 942 688.68 938.28 688.466 933.32L689.026 934C688.386 935.68 687.333 937.013 685.866 938C684.4 938.987 682.68 939.48 680.706 939.48C678.893 939.48 677.28 939.107 675.866 938.36C674.48 937.587 673.386 936.533 672.586 935.2C671.813 933.84 671.426 932.28 671.426 930.52C671.426 928.733 671.813 927.173 672.586 925.84C673.386 924.48 674.48 923.427 675.866 922.68C677.28 921.907 678.893 921.52 680.706 921.52ZM680.706 923.84C679.4 923.84 678.24 924.12 677.226 924.68C676.213 925.24 675.413 926.027 674.826 927.04C674.266 928.027 673.986 929.187 673.986 930.52C673.986 931.827 674.266 932.987 674.826 934C675.413 934.987 676.213 935.76 677.226 936.32C678.24 936.88 679.4 937.16 680.706 937.16C682.04 937.16 683.213 936.88 684.226 936.32C685.24 935.76 686.026 934.987 686.586 934C687.173 932.987 687.466 931.827 687.466 930.52C687.466 929.187 687.173 928.027 686.586 927.04C686.026 926.027 685.24 925.24 684.226 924.68C683.213 924.12 682.04 923.84 680.706 923.84ZM704.169 950.48C703.129 950.48 702.049 950.333 700.929 950.04C699.836 949.747 698.782 949.28 697.769 948.64C696.782 948 695.929 947.16 695.209 946.12L697.009 944.56C698.102 945.84 699.249 946.773 700.449 947.36C701.649 947.947 702.889 948.24 704.169 948.24C706.196 948.24 707.836 947.627 709.089 946.4C710.369 945.147 711.009 943.52 711.009 941.52C711.009 939.493 710.396 937.867 709.169 936.64C707.942 935.387 706.342 934.76 704.369 934.76C703.302 934.76 702.236 934.987 701.169 935.44C700.129 935.893 699.316 936.467 698.729 937.16L696.409 936.6L697.609 922H712.209V924.32H699.969L699.129 934.08C699.902 933.6 700.742 933.227 701.649 932.96C702.556 932.667 703.462 932.52 704.369 932.52C706.156 932.52 707.729 932.907 709.089 933.68C710.449 934.427 711.516 935.48 712.289 936.84C713.089 938.2 713.489 939.76 713.489 941.52C713.489 943.28 713.089 944.84 712.289 946.2C711.489 947.533 710.382 948.587 708.969 949.36C707.582 950.107 705.982 950.48 704.169 950.48ZM727.14 950.48C725.22 950.48 723.513 950.04 722.02 949.16C720.553 948.253 719.393 947.013 718.54 945.44C717.713 943.867 717.3 942.053 717.3 940C717.3 937.947 717.713 936.133 718.54 934.56C719.366 932.987 720.513 931.76 721.98 930.88C723.473 929.973 725.166 929.52 727.06 929.52C728.953 929.52 730.633 929.947 732.1 930.8C733.566 931.627 734.7 932.787 735.5 934.28L733.42 935.4C732.806 934.253 731.94 933.36 730.82 932.72C729.726 932.053 728.473 931.72 727.06 931.72C725.62 931.72 724.34 932.08 723.22 932.8C722.126 933.493 721.26 934.467 720.62 935.72C720.006 936.947 719.7 938.373 719.7 940C719.7 941.627 720.02 943.067 720.66 944.32C721.3 945.547 722.18 946.52 723.3 947.24C724.42 947.933 725.7 948.28 727.14 948.28C728.58 948.28 729.86 947.92 730.98 947.2C732.1 946.453 732.953 945.427 733.54 944.12L735.66 945.24C734.86 946.867 733.713 948.147 732.22 949.08C730.753 950.013 729.06 950.48 727.14 950.48ZM740.062 950V930H742.302L742.422 932.88C743.035 931.787 743.822 930.96 744.782 930.4C745.769 929.813 746.915 929.52 748.222 929.52C749.795 929.52 751.155 929.907 752.302 930.68C753.449 931.427 754.275 932.587 754.782 934.16C755.342 932.667 756.155 931.52 757.222 930.72C758.315 929.92 759.635 929.52 761.182 929.52C763.369 929.52 765.115 930.267 766.422 931.76C767.755 933.253 768.409 935.52 768.382 938.56V950H765.982V939.76C765.982 937.547 765.742 935.867 765.262 934.72C764.809 933.573 764.195 932.8 763.422 932.4C762.649 931.973 761.769 931.76 760.782 931.76C759.102 931.76 757.782 932.467 756.822 933.88C755.889 935.267 755.422 937.213 755.422 939.72V950H753.022V939.76C753.022 937.547 752.782 935.867 752.302 934.72C751.849 933.573 751.235 932.8 750.462 932.4C749.689 931.973 748.809 931.76 747.822 931.76C746.142 931.76 744.822 932.467 743.862 933.88C742.929 935.267 742.462 937.213 742.462 939.72V950H740.062Z" fill="black"/>
<rect x="216" y="158" width="1009" height="708" rx="57" fill="#E8E8E8" stroke="black" stroke-width="10"/>
<path d="M596.327 257.779C593.945 257.779 591.759 257.498 589.768 256.935C587.819 256.372 586.088 255.593 584.572 254.597C583.1 253.601 581.866 252.497 580.871 251.285C579.918 250.03 579.247 248.731 578.857 247.389L586.261 245.116C586.824 246.718 587.928 248.125 589.573 249.337C591.218 250.549 593.253 251.177 595.677 251.22C598.491 251.22 600.721 250.636 602.366 249.467C604.011 248.298 604.834 246.761 604.834 244.856C604.834 243.124 604.141 241.717 602.756 240.635C601.37 239.509 599.509 238.643 597.171 238.037L591.586 236.608C589.464 236.046 587.538 235.223 585.806 234.141C584.118 233.058 582.776 231.695 581.78 230.049C580.827 228.404 580.351 226.456 580.351 224.205C580.351 219.962 581.736 216.672 584.507 214.334C587.278 211.952 591.24 210.762 596.392 210.762C599.292 210.762 601.825 211.216 603.99 212.126C606.198 212.992 608.016 214.204 609.445 215.762C610.873 217.278 611.934 219.009 612.627 220.958L605.353 223.296C604.704 221.564 603.578 220.135 601.976 219.009C600.375 217.884 598.383 217.321 596.002 217.321C593.534 217.321 591.586 217.905 590.157 219.074C588.772 220.243 588.079 221.867 588.079 223.945C588.079 225.633 588.62 226.954 589.703 227.906C590.828 228.816 592.344 229.508 594.248 229.984L599.833 231.348C603.903 232.344 607.064 234.054 609.315 236.479C611.566 238.903 612.692 241.587 612.692 244.531C612.692 247.129 612.064 249.424 610.808 251.415C609.553 253.407 607.691 254.965 605.224 256.091C602.799 257.216 599.833 257.779 596.327 257.779ZM638.366 257.909C634.773 257.909 631.612 257.195 628.885 255.766C626.201 254.294 624.101 252.238 622.586 249.597C621.114 246.956 620.378 243.882 620.378 240.375V211.541H627.911V240.375C627.911 242.496 628.344 244.358 629.21 245.96C630.119 247.519 631.374 248.752 632.976 249.662C634.578 250.528 636.418 250.96 638.496 250.96C640.618 250.96 642.479 250.528 644.081 249.662C645.726 248.752 646.982 247.519 647.848 245.96C648.714 244.358 649.147 242.496 649.147 240.375V211.541H656.68V240.375C656.68 243.882 655.922 246.956 654.407 249.597C652.935 252.238 650.813 254.294 648.043 255.766C645.315 257.195 642.09 257.909 638.366 257.909ZM666.816 257V211.541H674.609L698.767 244.401V211.541H706.3V257H698.767L674.349 223.75V257H666.816ZM717.107 257V211.541H732.108C735.226 211.541 737.91 212.017 740.161 212.97C742.456 213.922 744.231 215.351 745.486 217.256C746.742 219.118 747.37 221.456 747.37 224.27C747.37 226.218 746.893 227.971 745.941 229.53C745.032 231.088 743.733 232.387 742.044 233.426C744.252 234.509 745.941 235.959 747.11 237.777C748.279 239.596 748.863 241.76 748.863 244.272C748.863 246.956 748.257 249.25 747.045 251.155C745.833 253.06 744.123 254.511 741.915 255.506C739.707 256.502 737.087 257 734.057 257H717.107ZM724.51 250.246H733.472C735.853 250.246 737.737 249.662 739.122 248.493C740.508 247.324 741.2 245.744 741.2 243.752C741.2 241.587 740.421 239.899 738.862 238.687C737.347 237.474 735.204 236.868 732.433 236.868H724.51V250.246ZM724.51 230.634H732.758C734.923 230.634 736.611 230.071 737.823 228.945C739.079 227.776 739.707 226.175 739.707 224.14C739.707 222.062 738.992 220.481 737.564 219.399C736.178 218.273 734.23 217.711 731.719 217.711H724.51V230.634ZM777.068 257.779C772.565 257.779 768.582 256.784 765.118 254.792C761.655 252.8 758.927 250.03 756.936 246.48C754.988 242.929 754.013 238.86 754.013 234.271C754.013 229.681 754.988 225.633 756.936 222.127C758.927 218.576 761.633 215.806 765.053 213.814C768.474 211.779 772.413 210.762 776.873 210.762C781.375 210.762 785.337 211.779 788.757 213.814C792.22 215.806 794.905 218.576 796.81 222.127C798.758 225.633 799.732 229.681 799.732 234.271C799.732 238.86 798.758 242.929 796.81 246.48C794.905 250.03 792.242 252.8 788.822 254.792C785.445 256.784 781.527 257.779 777.068 257.779ZM777.068 250.896C780.012 250.896 782.609 250.181 784.86 248.752C787.112 247.324 788.865 245.376 790.121 242.908C791.42 240.397 792.069 237.518 792.069 234.271C792.069 231.067 791.42 228.209 790.121 225.698C788.822 223.187 787.025 221.239 784.731 219.854C782.479 218.425 779.86 217.711 776.873 217.711C773.929 217.711 771.309 218.425 769.015 219.854C766.764 221.239 764.967 223.187 763.625 225.698C762.326 228.166 761.676 231.024 761.676 234.271C761.676 237.518 762.326 240.397 763.625 242.908C764.967 245.376 766.785 247.324 769.08 248.752C771.418 250.181 774.08 250.896 777.068 250.896ZM802.992 257L820.591 232.063L834.943 211.541H843.905L826.696 235.31L812.084 257H802.992ZM835.008 257L820.461 235.31L803.187 211.541H812.214L826.566 232.063L844.1 257H835.008Z" fill="black"/>
<line x1="206" y1="709.464" x2="206" y2="476.1" stroke="black" stroke-width="10"/>
<line x1="1230" y1="152.5" x2="1307" y2="152.5" stroke="black"/>
<line x1="1230" y1="869.5" x2="1307" y2="869.5" stroke="black"/>
<line x1="1268.5" y1="153" x2="1268.52" y2="870" stroke="black"/>
<path d="M1306 559.416L1279.12 544.656L1280.32 542.496L1306 556.576V559.416ZM1280.32 560.696H1278V542.496H1280.32V543.976V560.696ZM1306.48 528.525C1306.48 530.632 1305.87 532.499 1304.64 534.125C1303.39 535.725 1301.68 536.992 1299.52 537.925C1297.33 538.832 1294.83 539.285 1292 539.285C1289.17 539.285 1286.68 538.832 1284.52 537.925C1282.33 536.992 1280.63 535.725 1279.4 534.125C1278.15 532.499 1277.52 530.632 1277.52 528.525C1277.52 526.419 1278.15 524.565 1279.4 522.965C1280.63 521.339 1282.33 520.072 1284.52 519.165C1286.68 518.232 1289.17 517.765 1292 517.765C1294.83 517.765 1297.33 518.232 1299.52 519.165C1301.68 520.072 1303.39 521.339 1304.64 522.965C1305.87 524.565 1306.48 526.419 1306.48 528.525ZM1304.16 528.525C1304.16 526.925 1303.64 525.512 1302.6 524.285C1301.56 523.032 1300.13 522.059 1298.32 521.365C1296.48 520.672 1294.37 520.325 1292 520.325C1289.63 520.325 1287.53 520.672 1285.72 521.365C1283.88 522.059 1282.44 523.032 1281.4 524.285C1280.36 525.512 1279.84 526.925 1279.84 528.525C1279.84 530.125 1280.36 531.552 1281.4 532.805C1282.44 534.032 1283.88 534.992 1285.72 535.685C1287.53 536.379 1289.63 536.725 1292 536.725C1294.37 536.725 1296.48 536.379 1298.32 535.685C1300.13 534.992 1301.56 534.032 1302.6 532.805C1303.64 531.552 1304.16 530.125 1304.16 528.525ZM1306.48 504.137C1306.48 506.057 1306.04 507.764 1305.16 509.257C1304.25 510.724 1303.01 511.884 1301.44 512.737C1299.87 513.564 1298.05 513.977 1296 513.977C1293.95 513.977 1292.13 513.564 1290.56 512.737C1288.99 511.911 1287.76 510.764 1286.88 509.297C1285.97 507.804 1285.52 506.111 1285.52 504.217C1285.52 502.324 1285.95 500.644 1286.8 499.177C1287.63 497.711 1288.79 496.577 1290.28 495.777L1291.4 497.857C1290.25 498.471 1289.36 499.337 1288.72 500.457C1288.05 501.551 1287.72 502.804 1287.72 504.217C1287.72 505.657 1288.08 506.937 1288.8 508.057C1289.49 509.151 1290.47 510.017 1291.72 510.657C1292.95 511.271 1294.37 511.577 1296 511.577C1297.63 511.577 1299.07 511.257 1300.32 510.617C1301.55 509.977 1302.52 509.097 1303.24 507.977C1303.93 506.857 1304.28 505.577 1304.28 504.137C1304.28 502.697 1303.92 501.417 1303.2 500.297C1302.45 499.177 1301.43 498.324 1300.12 497.737L1301.24 495.617C1302.87 496.417 1304.15 497.564 1305.08 499.057C1306.01 500.524 1306.48 502.217 1306.48 504.137ZM1306 491.215H1286V488.975L1288.88 488.855C1287.79 488.242 1286.96 487.455 1286.4 486.495C1285.81 485.508 1285.52 484.362 1285.52 483.055C1285.52 481.482 1285.91 480.122 1286.68 478.975C1287.43 477.828 1288.59 477.002 1290.16 476.495C1288.67 475.935 1287.52 475.122 1286.72 474.055C1285.92 472.962 1285.52 471.642 1285.52 470.095C1285.52 467.908 1286.27 466.162 1287.76 464.855C1289.25 463.522 1291.52 462.868 1294.56 462.895H1306V465.295H1295.76C1293.55 465.295 1291.87 465.535 1290.72 466.015C1289.57 466.468 1288.8 467.082 1288.4 467.855C1287.97 468.628 1287.76 469.508 1287.76 470.495C1287.76 472.175 1288.47 473.495 1289.88 474.455C1291.27 475.388 1293.21 475.855 1295.72 475.855H1306V478.255H1295.76C1293.55 478.255 1291.87 478.495 1290.72 478.975C1289.57 479.428 1288.8 480.042 1288.4 480.815C1287.97 481.588 1287.76 482.468 1287.76 483.455C1287.76 485.135 1288.47 486.455 1289.88 487.415C1291.27 488.348 1293.21 488.815 1295.72 488.815H1306V491.215Z" fill="black"/>
</svg>
