<svg width="1440" height="1024" viewBox="0 0 1440 1024" fill="none" xmlns="http://www.w3.org/2000/svg">
<rect width="1440" height="1024" rx="60" fill="#E8E8E8"/>
<line x1="465.5" y1="792" x2="465.5" y2="869" stroke="black"/>
<line x1="974.5" y1="792" x2="974.5" y2="869" stroke="black"/>
<line y1="-0.5" x2="507.517" y2="-0.5" transform="matrix(0.999998 -0.00197038 0.00048212 1 466.484 831)" stroke="black"/>
<path d="M680.197 871.48C678.943 871.48 677.81 871.293 676.797 870.92C675.783 870.547 674.903 870.08 674.157 869.52C673.437 868.933 672.823 868.36 672.317 867.8L674.237 866.2C674.557 866.6 674.957 867.04 675.437 867.52C675.943 867.973 676.57 868.36 677.317 868.68C678.063 869 678.97 869.16 680.037 869.16C682.037 869.16 683.637 868.587 684.837 867.44C686.037 866.267 686.637 864.813 686.637 863.08C686.637 861.72 686.263 860.587 685.517 859.68C684.77 858.773 683.717 858.093 682.357 857.64C680.997 857.187 679.41 856.96 677.597 856.96H677.197V854.72H677.597C679.303 854.72 680.863 854.907 682.277 855.28C683.69 855.627 684.917 856.16 685.957 856.88C686.997 857.6 687.797 858.493 688.357 859.56C688.917 860.6 689.197 861.8 689.197 863.16C689.197 864.813 688.797 866.267 687.997 867.52C687.223 868.773 686.157 869.747 684.797 870.44C683.437 871.133 681.903 871.48 680.197 871.48ZM677.197 856.96V854.68H677.597C680.077 854.68 682.077 854.253 683.597 853.4C685.117 852.547 685.877 851.333 685.877 849.76C685.877 848.88 685.637 848.067 685.157 847.32C684.677 846.573 683.983 845.973 683.077 845.52C682.197 845.067 681.157 844.84 679.957 844.84C679.183 844.84 678.463 844.947 677.797 845.16C677.13 845.373 676.517 845.68 675.957 846.08C675.397 846.453 674.877 846.907 674.397 847.44L672.637 845.92C673.197 845.253 673.837 844.667 674.557 844.16C675.303 843.653 676.13 843.253 677.037 842.96C677.97 842.667 678.997 842.52 680.117 842.52C681.717 842.52 683.143 842.84 684.397 843.48C685.65 844.12 686.637 844.987 687.357 846.08C688.077 847.173 688.437 848.387 688.437 849.72C688.437 850.867 688.17 851.893 687.637 852.8C687.103 853.68 686.343 854.44 685.357 855.08C684.397 855.693 683.25 856.16 681.917 856.48C680.61 856.8 679.157 856.96 677.557 856.96H677.197ZM702.759 871.48C701.719 871.48 700.639 871.333 699.519 871.04C698.426 870.747 697.373 870.28 696.359 869.64C695.373 869 694.519 868.16 693.799 867.12L695.599 865.56C696.693 866.84 697.839 867.773 699.039 868.36C700.239 868.947 701.479 869.24 702.759 869.24C704.786 869.24 706.426 868.627 707.679 867.4C708.959 866.147 709.599 864.52 709.599 862.52C709.599 860.493 708.986 858.867 707.759 857.64C706.533 856.387 704.933 855.76 702.959 855.76C701.893 855.76 700.826 855.987 699.759 856.44C698.719 856.893 697.906 857.467 697.319 858.16L694.999 857.6L696.199 843H710.799V845.32H698.559L697.719 855.08C698.493 854.6 699.333 854.227 700.239 853.96C701.146 853.667 702.053 853.52 702.959 853.52C704.746 853.52 706.319 853.907 707.679 854.68C709.039 855.427 710.106 856.48 710.879 857.84C711.679 859.2 712.079 860.76 712.079 862.52C712.079 864.28 711.679 865.84 710.879 867.2C710.079 868.533 708.973 869.587 707.559 870.36C706.173 871.107 704.573 871.48 702.759 871.48ZM725.73 871.48C723.81 871.48 722.103 871.04 720.61 870.16C719.143 869.253 717.983 868.013 717.13 866.44C716.303 864.867 715.89 863.053 715.89 861C715.89 858.947 716.303 857.133 717.13 855.56C717.957 853.987 719.103 852.76 720.57 851.88C722.063 850.973 723.757 850.52 725.65 850.52C727.543 850.52 729.223 850.947 730.69 851.8C732.157 852.627 733.29 853.787 734.09 855.28L732.01 856.4C731.397 855.253 730.53 854.36 729.41 853.72C728.317 853.053 727.063 852.72 725.65 852.72C724.21 852.72 722.93 853.08 721.81 853.8C720.717 854.493 719.85 855.467 719.21 856.72C718.597 857.947 718.29 859.373 718.29 861C718.29 862.627 718.61 864.067 719.25 865.32C719.89 866.547 720.77 867.52 721.89 868.24C723.01 868.933 724.29 869.28 725.73 869.28C727.17 869.28 728.45 868.92 729.57 868.2C730.69 867.453 731.543 866.427 732.13 865.12L734.25 866.24C733.45 867.867 732.303 869.147 730.81 870.08C729.343 871.013 727.65 871.48 725.73 871.48ZM738.652 871V851H740.892L741.012 853.88C741.626 852.787 742.412 851.96 743.372 851.4C744.359 850.813 745.506 850.52 746.812 850.52C748.386 850.52 749.746 850.907 750.892 851.68C752.039 852.427 752.866 853.587 753.372 855.16C753.932 853.667 754.746 852.52 755.812 851.72C756.906 850.92 758.226 850.52 759.772 850.52C761.959 850.52 763.706 851.267 765.012 852.76C766.346 854.253 766.999 856.52 766.972 859.56V871H764.572V860.76C764.572 858.547 764.332 856.867 763.852 855.72C763.399 854.573 762.786 853.8 762.012 853.4C761.239 852.973 760.359 852.76 759.372 852.76C757.692 852.76 756.372 853.467 755.412 854.88C754.479 856.267 754.012 858.213 754.012 860.72V871H751.612V860.76C751.612 858.547 751.372 856.867 750.892 855.72C750.439 854.573 749.826 853.8 749.052 853.4C748.279 852.973 747.399 852.76 746.412 852.76C744.732 852.76 743.412 853.467 742.452 854.88C741.519 856.267 741.052 858.213 741.052 860.72V871H738.652Z" fill="black"/>
<line x1="974" y1="231.5" x2="1051" y2="231.5" stroke="black"/>
<line x1="974" y1="791.5" x2="1051" y2="791.5" stroke="black"/>
<line x1="1012.5" y1="232" x2="1012.52" y2="792" stroke="black"/>
<path d="M1050 548.526H1042.72V561.406H1040.76L1022 548.526V546.006H1040.36V539.966H1042.72V546.006H1050V548.526ZM1040.36 558.246V548.526H1026.12L1040.36 558.246ZM1050.48 527.198C1050.48 528.238 1050.33 529.318 1050.04 530.438C1049.75 531.531 1049.28 532.584 1048.64 533.598C1048 534.584 1047.16 535.438 1046.12 536.158L1044.56 534.358C1045.84 533.264 1046.77 532.118 1047.36 530.918C1047.95 529.718 1048.24 528.478 1048.24 527.198C1048.24 525.171 1047.63 523.531 1046.4 522.278C1045.15 520.998 1043.52 520.358 1041.52 520.358C1039.49 520.358 1037.87 520.971 1036.64 522.198C1035.39 523.424 1034.76 525.024 1034.76 526.998C1034.76 528.064 1034.99 529.131 1035.44 530.198C1035.89 531.238 1036.47 532.051 1037.16 532.638L1036.6 534.958L1022 533.758V519.158H1024.32V531.398L1034.08 532.238C1033.6 531.464 1033.23 530.624 1032.96 529.718C1032.67 528.811 1032.52 527.904 1032.52 526.998C1032.52 525.211 1032.91 523.638 1033.68 522.278C1034.43 520.918 1035.48 519.851 1036.84 519.078C1038.2 518.278 1039.76 517.878 1041.52 517.878C1043.28 517.878 1044.84 518.278 1046.2 519.078C1047.53 519.878 1048.59 520.984 1049.36 522.398C1050.11 523.784 1050.48 525.384 1050.48 527.198ZM1050.48 504.227C1050.48 506.147 1050.04 507.854 1049.16 509.347C1048.25 510.814 1047.01 511.974 1045.44 512.827C1043.87 513.654 1042.05 514.067 1040 514.067C1037.95 514.067 1036.13 513.654 1034.56 512.827C1032.99 512.001 1031.76 510.854 1030.88 509.387C1029.97 507.894 1029.52 506.201 1029.52 504.307C1029.52 502.414 1029.95 500.734 1030.8 499.267C1031.63 497.801 1032.79 496.667 1034.28 495.867L1035.4 497.947C1034.25 498.561 1033.36 499.427 1032.72 500.547C1032.05 501.641 1031.72 502.894 1031.72 504.307C1031.72 505.747 1032.08 507.027 1032.8 508.147C1033.49 509.241 1034.47 510.107 1035.72 510.747C1036.95 511.361 1038.37 511.667 1040 511.667C1041.63 511.667 1043.07 511.347 1044.32 510.707C1045.55 510.067 1046.52 509.187 1047.24 508.067C1047.93 506.947 1048.28 505.667 1048.28 504.227C1048.28 502.787 1047.92 501.507 1047.2 500.387C1046.45 499.267 1045.43 498.414 1044.12 497.827L1045.24 495.707C1046.87 496.507 1048.15 497.654 1049.08 499.147C1050.01 500.614 1050.48 502.307 1050.48 504.227ZM1050 491.305H1030V489.065L1032.88 488.945C1031.79 488.331 1030.96 487.545 1030.4 486.585C1029.81 485.598 1029.52 484.451 1029.52 483.145C1029.52 481.571 1029.91 480.211 1030.68 479.065C1031.43 477.918 1032.59 477.091 1034.16 476.585C1032.67 476.025 1031.52 475.211 1030.72 474.145C1029.92 473.051 1029.52 471.731 1029.52 470.185C1029.52 467.998 1030.27 466.251 1031.76 464.945C1033.25 463.611 1035.52 462.958 1038.56 462.985H1050V465.385H1039.76C1037.55 465.385 1035.87 465.625 1034.72 466.105C1033.57 466.558 1032.8 467.171 1032.4 467.945C1031.97 468.718 1031.76 469.598 1031.76 470.585C1031.76 472.265 1032.47 473.585 1033.88 474.545C1035.27 475.478 1037.21 475.945 1039.72 475.945H1050V478.345H1039.76C1037.55 478.345 1035.87 478.585 1034.72 479.065C1033.57 479.518 1032.8 480.131 1032.4 480.905C1031.97 481.678 1031.76 482.558 1031.76 483.545C1031.76 485.225 1032.47 486.545 1033.88 487.505C1035.27 488.438 1037.21 488.905 1039.72 488.905H1050V491.305Z" fill="black"/>
<rect x="471" y="237" width="499" height="550" rx="57" fill="#E8E8E8" stroke="black" stroke-width="10"/>
<path d="M602.327 327.779C599.945 327.779 597.759 327.498 595.768 326.935C593.819 326.372 592.088 325.593 590.572 324.597C589.1 323.601 587.866 322.497 586.871 321.285C585.918 320.03 585.247 318.731 584.857 317.389L592.261 315.116C592.824 316.718 593.928 318.125 595.573 319.337C597.218 320.549 599.253 321.177 601.677 321.22C604.491 321.22 606.721 320.636 608.366 319.467C610.011 318.298 610.834 316.761 610.834 314.856C610.834 313.124 610.141 311.717 608.756 310.635C607.37 309.509 605.509 308.643 603.171 308.037L597.586 306.608C595.464 306.046 593.538 305.223 591.806 304.141C590.118 303.058 588.776 301.695 587.78 300.049C586.827 298.404 586.351 296.456 586.351 294.205C586.351 289.962 587.736 286.672 590.507 284.334C593.278 281.952 597.24 280.762 602.392 280.762C605.292 280.762 607.825 281.216 609.99 282.126C612.198 282.992 614.016 284.204 615.445 285.762C616.873 287.278 617.934 289.009 618.627 290.958L611.353 293.296C610.704 291.564 609.578 290.135 607.976 289.009C606.375 287.884 604.383 287.321 602.002 287.321C599.534 287.321 597.586 287.905 596.157 289.074C594.772 290.243 594.079 291.867 594.079 293.945C594.079 295.633 594.62 296.954 595.703 297.906C596.828 298.816 598.344 299.508 600.248 299.984L605.833 301.348C609.903 302.344 613.064 304.054 615.315 306.479C617.566 308.903 618.692 311.587 618.692 314.531C618.692 317.129 618.064 319.424 616.808 321.415C615.553 323.407 613.691 324.965 611.224 326.091C608.799 327.216 605.833 327.779 602.327 327.779ZM644.366 327.909C640.773 327.909 637.612 327.195 634.885 325.766C632.201 324.294 630.101 322.238 628.586 319.597C627.114 316.956 626.378 313.882 626.378 310.375V281.541H633.911V310.375C633.911 312.496 634.344 314.358 635.21 315.96C636.119 317.519 637.374 318.752 638.976 319.662C640.578 320.528 642.418 320.96 644.496 320.96C646.618 320.96 648.479 320.528 650.081 319.662C651.726 318.752 652.982 317.519 653.848 315.96C654.714 314.358 655.147 312.496 655.147 310.375V281.541H662.68V310.375C662.68 313.882 661.922 316.956 660.407 319.597C658.935 322.238 656.813 324.294 654.043 325.766C651.315 327.195 648.09 327.909 644.366 327.909ZM672.816 327V281.541H680.609L704.767 314.401V281.541H712.3V327H704.767L680.349 293.75V327H672.816ZM723.107 327V281.541H738.108C741.226 281.541 743.91 282.017 746.161 282.97C748.456 283.922 750.231 285.351 751.486 287.256C752.742 289.118 753.37 291.456 753.37 294.27C753.37 296.218 752.893 297.971 751.941 299.53C751.032 301.088 749.733 302.387 748.044 303.426C750.252 304.509 751.941 305.959 753.11 307.777C754.279 309.596 754.863 311.76 754.863 314.272C754.863 316.956 754.257 319.25 753.045 321.155C751.833 323.06 750.123 324.511 747.915 325.506C745.707 326.502 743.087 327 740.057 327H723.107ZM730.51 320.246H739.472C741.853 320.246 743.737 319.662 745.122 318.493C746.508 317.324 747.2 315.744 747.2 313.752C747.2 311.587 746.421 309.899 744.862 308.687C743.347 307.474 741.204 306.868 738.433 306.868H730.51V320.246ZM730.51 300.634H738.758C740.923 300.634 742.611 300.071 743.823 298.945C745.079 297.776 745.707 296.175 745.707 294.14C745.707 292.062 744.992 290.481 743.564 289.399C742.178 288.273 740.23 287.711 737.719 287.711H730.51V300.634ZM783.068 327.779C778.565 327.779 774.582 326.784 771.118 324.792C767.655 322.8 764.927 320.03 762.936 316.48C760.988 312.929 760.013 308.86 760.013 304.271C760.013 299.681 760.988 295.633 762.936 292.127C764.927 288.576 767.633 285.806 771.053 283.814C774.474 281.779 778.413 280.762 782.873 280.762C787.375 280.762 791.337 281.779 794.757 283.814C798.22 285.806 800.905 288.576 802.81 292.127C804.758 295.633 805.732 299.681 805.732 304.271C805.732 308.86 804.758 312.929 802.81 316.48C800.905 320.03 798.242 322.8 794.822 324.792C791.445 326.784 787.527 327.779 783.068 327.779ZM783.068 320.896C786.012 320.896 788.609 320.181 790.86 318.752C793.112 317.324 794.865 315.376 796.121 312.908C797.42 310.397 798.069 307.518 798.069 304.271C798.069 301.067 797.42 298.209 796.121 295.698C794.822 293.187 793.025 291.239 790.731 289.854C788.479 288.425 785.86 287.711 782.873 287.711C779.929 287.711 777.309 288.425 775.015 289.854C772.764 291.239 770.967 293.187 769.625 295.698C768.326 298.166 767.676 301.024 767.676 304.271C767.676 307.518 768.326 310.397 769.625 312.908C770.967 315.376 772.785 317.324 775.08 318.752C777.418 320.181 780.08 320.896 783.068 320.896ZM808.992 327L826.591 302.063L840.943 281.541H849.905L832.696 305.31L818.084 327H808.992ZM841.008 327L826.461 305.31L809.187 281.541H818.214L832.566 302.063L850.1 327H841.008Z" fill="black"/>
<line x1="461" y1="666.011" x2="461" y2="484" stroke="black" stroke-width="10"/>
</svg>
